<?xml version="1.0" encoding="utf-8"?>
<!-- Generator: Adobe Illustrator 21.0.0, SVG Export Plug-In . SVG Version: 6.00 Build 0)  -->
<svg version="1.1" id="Calque_1" xmlns="http://www.w3.org/2000/svg" xmlns:xlink="http://www.w3.org/1999/xlink" x="0px" y="0px"
	 viewBox="0 0 800 800" style="enable-background:new 0 0 800 800;" xml:space="preserve">
<style type="text/css">
	.st0{fill:#FFFFFF;}
</style>
<g id="f2ptJS.tif">
	<g>
		<path class="st0" d="M400,664.5C256.3,667,135,542.6,135.7,399.2c0.7-142.8,121.1-264,265.8-263.3
			c144.6,0.7,265.2,122.4,263.3,268.4C663,544.8,543.7,667.2,400,664.5z M622.1,400.3c2.1-121-101.8-222-221.3-222
			c-126.3,0.1-222.6,103.9-222.6,223.2c0,119.2,100.8,221.4,222.1,220.7C527.7,621.5,622.7,519.6,622.1,400.3z"/>
		<path class="st0" d="M241.1,384.2c42.1,11.1,84.4,17,127.9,19c0,3.7,0.1,7.2,0,10.6c-0.1,3.5,1.3,5.3,5,5.3c16,0,32,0,48,0
			c3.6,0,5.1-1.7,5-5.2c-0.1-3.3,0-6.6,0-10.6c43.2-2.1,85.7-7.8,127.9-19.1c0,2.3,0,3.9,0,5.6c0,33.5,0,67,0,100.5
			c0,8.7-4.8,13.6-13.4,13.6c-95.6,0-191.3,0-286.9,0c-8.6,0-13.4-4.8-13.4-13.6c0-33.5,0-67,0-100.5
			C241.1,388.2,241.1,386.6,241.1,384.2z"/>
		<path class="st0" d="M427,388.3c0-3.2-0.1-6.2,0-9.1c0.1-3.5-1.4-5.2-5-5.2c-16,0.1-32,0.1-48,0c-3.6,0-5.1,1.7-5,5.2
			c0.1,3,0,5.9,0,9.7c-10.1-0.7-19.7-1.2-29.2-2.1c-31.7-2.9-63.1-8.1-93.9-16.1c-3.8-1-4.9-2.5-4.8-6.4c0.2-17.8,0.1-35.6,0.1-53.5
			c0-8.4,4.4-12.8,13-12.8c55,0,109.9,0,164.9,0c40.6,0,81.3,0.2,121.9-0.2c7.9-0.1,14.4,4.9,14.1,14c-0.5,17.8-0.2,35.6-0.1,53.5
			c0,2.6-0.2,4.1-3.3,5c-40.1,10.6-80.9,16.3-122.3,18.4C428.8,388.7,428.3,388.5,427,388.3z"/>
		<path class="st0" d="M426.5,269.2c-19.6,0-38,0-57.1,0c0,3.9,0,7.5,0,11.1c0,0.6,0.3,1.7,0.6,1.7c5.1,1,2.6,4.7,3,7.9
			c-7.6,0-15,0-22.7,0c0-3-2.2-6.2,2.2-8.1c0.6-0.2,0.6-2.1,0.6-3.2c0.1-3.7-0.1-7.3,0.1-11c0.5-8.5,6.8-14.5,15.3-14.6
			c19.5-0.1,38.9-0.1,58.4,0c8.6,0,14.8,5.9,15.4,14.5c0.2,3.3,0,6.7,0.1,10c0.1,2.2-0.7,4.4,2.5,5.7c1.1,0.4,0.9,4.1,1.3,6.7
			c-8,0-15.4,0-23.2,0c0.1-2.9-1.2-5.1,2-8.1C427.4,279.5,426.1,273.8,426.5,269.2z"/>
		<path class="st0" d="M398.4,382c5,0,10,0.1,15,0c3.3-0.1,4.4,1.3,4.4,4.5c-0.1,6.8-0.1,13.6,0,20.4c0,3-1.2,4.2-4.2,4.1
			c-10.3-0.1-20.6-0.1-30.9,0c-3.3,0-4.4-1.4-4.4-4.5c0.1-6.8,0.1-13.6,0-20.4c0-3,1.2-4.2,4.2-4.1C387.8,382.1,393.1,382,398.4,382
			z"/>
	</g>
</g>
</svg>
