<?xml version="1.0" encoding="utf-8"?>
<!-- Generator: Adobe Illustrator 21.0.0, SVG Export Plug-In . SVG Version: 6.00 Build 0)  -->
<svg version="1.1" id="Calque_1" xmlns="http://www.w3.org/2000/svg" xmlns:xlink="http://www.w3.org/1999/xlink" x="0px" y="0px"
	 viewBox="0 0 800 800" style="enable-background:new 0 0 800 800;" xml:space="preserve">
<style type="text/css">
	.st0{fill:#FFFFFF;}
</style>
<g id="y83kO0.tif">
	<g>
		<path class="st0" d="M657,185c0,115.7,0,231.3,0,347c-0.8,5.2-1.4,10.5-2.6,15.7c-12.6,54.7-45.9,89.9-99.9,105.2
			c-7.3,2.1-15,2.8-22.5,4.2c-85.3,0-170.7,0-256,0c-8.6-4-11.8-10.7-10.9-20.1c1.9-19.1,9.3-35.6,23.1-49
			c10.3-9.9,22.6-16.2,36.5-19.4c0-10.6,0-20.8,0-31.5c-2.2,0-4.2,0-6.1,0c-42.1,0-84.3,0-126.4,0c-15.8,0-29.3-5.4-38.2-18.7
			c-4.2-6.3-6.1-14.2-9-21.3c0-104,0-208,0-312c0.3-0.8,0.7-1.5,0.8-2.3c1.9-11.1,7.2-20.1,15.8-27.4c6.8-5.8,14.9-8.3,23.4-10.3
			c144,0,288,0,432,0c0.6,0.2,1.2,0.6,1.8,0.7c11.5,1.8,20.8,7.3,28.2,16.3C652.6,168.7,655.1,176.7,657,185z M627,437.4
			c0-3.2,0-4.8,0-6.4c0-79.2,0-158.3,0-237.5c0-13.1-5.4-18.5-18.5-18.5c-138.3,0-276.6,0-415,0c-13.1,0-18.5,5.4-18.5,18.5
			c0,82.7,0,165.3,0,248c0,1.8,0,3.5,0,5.3c1.3,0.1,2,0.2,2.6,0.2c76.3,0,152.6,0,229-0.1c2,0,4.6-1.8,5.8-3.5
			c11.2-15.3,24.7-28,41.1-37.4c42.9-24.6,86.7-25.2,130.8-3.5C600.6,410.5,614.3,422.2,627,437.4z M522.1,627
			c57.8-0.1,105-47.5,104.8-105.1c-0.1-57.8-47.5-105-105.1-104.8c-57.8,0.1-105,47.5-104.8,105.1
			C417.1,579.9,464.5,627.1,522.1,627z M175,477.1c0,4.1,0,7.8,0,11.4c0,13,5.4,18.4,18.5,18.4c63,0,125.9,0,188.9,0
			c1.8,0,3.6,0,4.9,0c2.3-10.3,4.5-20,6.7-29.9C321.2,477.1,248.4,477.1,175,477.1z M298.3,626.6c46.1,0,91.9,0,136.7,0
			c-7.7-9-15.6-18.2-23.6-27.3c-1-1.1-2.7-2.2-4-2.2c-23.5-0.1-47-0.5-70.5,0.2C319,597.9,303.1,610.6,298.3,626.6z M387.5,537.3
			c-10.8,0-21.5,0-32.1,0c0,10,0,19.7,0,29.5c13.1,0,25.9,0,38.8,0C391.9,557,389.7,547.3,387.5,537.3z"/>
		<path class="st0" d="M657,185c-1.9-8.3-4.4-16.3-10-23c-7.4-9-16.7-14.5-28.2-16.3c-0.6-0.1-1.2-0.5-1.8-0.7"/>
		<path class="st0" d="M385,310.2c0,14.3-0.1,28.7,0.1,43c0.1,7.4-2.9,12.6-9.2,16.5c-23.7,14.5-47.4,29.1-71,43.8
			c-6.9,4.3-13.2,4.1-20.1-0.1c-23.4-14.6-47-29.2-70.6-43.6c-6.5-4-9.4-9.3-9.4-16.9c0.2-28.5,0.1-57,0-85.5
			c0-7.4,2.8-12.7,9.2-16.5c23.9-14.3,47.7-28.6,71.4-43c6.5-3.9,12.7-4.1,19.2-0.1c23.7,14.5,47.5,28.9,71.3,43.2
			c6.1,3.7,9,8.8,8.9,16.1C384.9,281.6,385,295.9,385,310.2z M249.1,265.1c15.2,9.2,29.6,17.9,44,26.4c1.2,0.7,3.8,0.1,5.3-0.8
			c13-7.7,25.9-15.6,38.9-23.4c1-0.6,2-1.5,3.3-2.5c-14.8-9-29.2-17.7-43.6-26.3c-0.9-0.5-2.7-0.6-3.6,0
			C278.9,247,264.4,255.8,249.1,265.1z M310,374.1c0.7,0,1.3,0.1,1.6-0.1c13.9-8.5,27.8-17,41.5-25.7c1.1-0.7,1.7-2.7,1.8-4.1
			c0.2-7.8,0.1-15.6,0.1-23.5c0-9.4,0-18.8,0-29.1c-15,9-29.2,17.6-43.3,26.3c-1,0.6-1.7,2.4-1.7,3.7C310,339.1,310,356.5,310,374.1
			z M280,375.1c0-13.6,0-26.1,0-38.6c0-5.8,1.7-12.7-0.8-17.1c-2.5-4.4-9.2-6.6-14.2-9.6c-9.7-5.9-19.5-11.8-30-18.1
			c0,13.6,1,26.5-0.3,39.1c-1.3,12.7,2.9,20.1,14.3,25.5C259.6,361.3,269.2,368.4,280,375.1z"/>
		<path class="st0" d="M522,296c9.5,0,19-0.1,28.5,0c9.7,0.1,16.5,6.2,16.5,15c0,8.7-6.7,15-16.5,15c-19,0.1-38,0.1-57,0
			c-9.7,0-16.5-6.2-16.5-15c0-8.7,6.7-14.9,16.5-15C503,295.9,512.5,296,522,296z"/>
		<path class="st0" d="M521.7,266c-9.5,0-19,0.1-28.5,0c-9.4-0.1-16.1-6.2-16.2-14.8c-0.1-8.7,6.6-15.2,16.3-15.2
			c19.2-0.1,38.3-0.1,57.5,0c9.4,0,16.1,6.2,16.2,14.8c0.1,8.7-6.6,15.1-16.3,15.2C541,266.1,531.4,266,521.7,266z"/>
		<path class="st0" d="M567,521.8c0.2,24.4-20,44.8-44.6,45.2c-24.3,0.4-45-20-45.4-44.5c-0.3-24.6,20.2-45.3,44.9-45.4
			C546.3,476.9,566.7,497.2,567,521.8z M521.9,507c-8.2,0.1-14.9,6.9-14.8,15.1c0.1,8.2,6.9,14.9,15.1,14.8
			c8.2-0.1,14.9-6.9,14.8-15.1C536.9,513.7,530,507,521.9,507z"/>
	</g>
</g>
</svg>
