<?xml version="1.0" encoding="utf-8"?>
<!-- Generator: Adobe Illustrator 21.0.0, SVG Export Plug-In . SVG Version: 6.00 Build 0)  -->
<svg version="1.1" id="Calque_1" xmlns="http://www.w3.org/2000/svg" xmlns:xlink="http://www.w3.org/1999/xlink" x="0px" y="0px"
	 viewBox="0 0 800 800" style="enable-background:new 0 0 800 800;" xml:space="preserve">
<style type="text/css">
	.st0{fill:#FFFFFF;}
</style>
<g id="HVKRhE_1_">
	<g>
		<path class="st0" d="M225.1,396.3c0-22-0.1-44,0.1-66c0-3.6-0.8-5.2-4.6-6c-12.5-2.6-25-5.6-37.5-8.5c-22.7-5.3-38.1-24.4-38-47
			c0.1-22.7,15.5-41.5,38.3-46.8c68.7-15.9,137.4-31.7,206.1-47.6c10.5-2.4,20.5-0.5,30.6,1.8c66.1,15.3,132.2,30.6,198.4,45.8
			c23,5.3,38.5,24.3,38.4,47.2c-0.1,22.6-15.5,41.4-38.4,46.7c-12.3,2.8-24.6,5.8-37,8.4c-3.7,0.8-4.7,2.3-4.7,5.9
			c0.1,42.8,0,85.6,0.1,128.5c0.1,17.8-6.8,32.3-19.9,44c-17,15.2-37.7,22.8-59.4,28.1c-39,9.5-78.7,10.9-118.6,9.5
			c-30-1.1-59.8-4.3-88.6-13.4c-16.8-5.3-32.7-12.5-45.9-24.5c-12.8-11.7-19.7-26-19.5-43.7C225.3,438,225.1,417.1,225.1,396.3z
			 M256.9,332.9c0,2.4,0,4,0,5.7c0,38.7,0.3,77.3-0.2,116c-0.1,10.3,3.8,17.5,11.5,23.4c11,8.5,23.4,13.9,36.5,18.1
			c24.4,7.8,49.6,11.4,75.1,12.6c38.5,1.8,76.6-0.4,113.8-11.4c15.6-4.6,30.5-10.7,42.9-21.6c5.8-5,8.8-11,8.8-19.2
			c-0.3-39.3-0.1-78.6-0.2-118c0-1.7-0.1-3.5-0.2-5.4c-1.2,0.2-1.9,0.3-2.5,0.5c-38.9,9-77.8,18-116.7,26.9
			c-11.5,2.6-22.8,6.3-34.9,3.4c-19.4-4.7-38.9-9.1-58.3-13.5C307.5,344.5,282.6,338.8,256.9,332.9z M400.2,333.3
			c2.1-0.3,3.6-0.4,5.1-0.8c68.9-15.8,137.8-31.7,206.7-47.6c8-1.8,13.2-8.3,13.2-16c0-7.8-5.1-14-13.3-15.9
			c-68.6-15.8-137.1-31.6-205.7-47.3c-3.1-0.7-6.7-0.8-9.8-0.1c-68.8,15.7-137.5,31.5-206.2,47.4c-8.1,1.9-13.2,8.2-13.2,16
			c0,7.8,5.2,14.1,13.3,15.9c7.4,1.7,14.9,3.4,22.4,5.1c53.6,12.4,107.3,24.7,160.9,37.1C382.6,329.3,391.7,331.4,400.2,333.3z"/>
		<path class="st0" d="M640.9,421.1c0,23.6,0.1,47.3,0,70.9c-0.1,12.1-11.1,19.9-21.9,15.6c-6.2-2.5-9.9-8.3-9.9-15.9
			c0-30.1,0-60.3,0-90.4c0-16.8,0-33.6,0-50.5c0-10.6,6.6-17.9,16-17.8c9.3,0.1,15.7,7.2,15.7,17.6
			C640.9,374.2,640.9,397.7,640.9,421.1C640.9,421.1,640.9,421.1,640.9,421.1z"/>
		<path class="st0" d="M656.9,586.6c-0.1,20.6-15.5,35.3-33.5,34.3c-18.5-1-32.1-17.2-30-35.8c1.7-15.9,6.5-30.9,14.2-44.8
			c2.2-4,5.2-7.8,8.5-11c6-5.7,12-5.5,18.1,0.1c1.6,1.4,3.1,3,4.3,4.8C649.8,550.6,654.8,569.2,656.9,586.6z"/>
	</g>
</g>
</svg>
