<?xml version="1.0" encoding="utf-8"?>
<!-- Generator: Adobe Illustrator 21.0.0, SVG Export Plug-In . SVG Version: 6.00 Build 0)  -->
<svg version="1.1" id="Calque_1" xmlns="http://www.w3.org/2000/svg" xmlns:xlink="http://www.w3.org/1999/xlink" x="0px" y="0px"
	 viewBox="0 0 800 800" style="enable-background:new 0 0 800 800;" xml:space="preserve">
<style type="text/css">
	.st0{fill:#FFFFFF;}
</style>
<g id="VOKlxd_1_">
	<g>
		<path class="st0" d="M401,640.5c-98.2,0-196.4,0-294.6,0c-26.8,0-33.2-6.2-33.2-32.4c0-124.1,0-248.1,0-372.2
			c0-25.2,6.6-31.7,32.3-31.7c58.4,0,116.8-0.2,175.2,0.2c9.9,0.1,13.9-2.8,16.9-12.7c14.3-48.2,52.1-75,103.3-74.9
			c50.6,0.1,88.4,26.7,102.2,74c3.5,11.9,8.9,13.7,19.5,13.6c57.9-0.4,115.8-0.2,173.7-0.2c25.3,0,31.7,6.6,31.7,32.3
			c0,124.1,0,248.1,0,372.2c0,25.3-6.5,31.8-32.3,31.8C597.4,640.5,499.2,640.5,401,640.5z M552.5,596.7c0-117.1,0-233,0-348.3
			c-102.3,0-203.3,0-304.2,0c0,116.7,0,232.2,0,348.3C350,596.7,450.6,596.7,552.5,596.7z M202.9,596.7c0-116.9,0-232.7,0-348.3
			c-29.4,0-57.5,0-85.4,0c0,116.7,0,232.1,0,348.3C146.1,596.7,173.8,596.7,202.9,596.7z M683.6,596.8c0-117.1,0-232.5,0-348.8
			c-28.9,0-57,0-85.6,0c0,116.6,0,232.4,0,348.8C626.9,596.8,654.6,596.8,683.6,596.8z M340.9,203.2c39.8,0,79.5,0,119.6,0
			c-7.8-29.5-29.7-44-63.4-42.9C366.8,161.2,346.1,176.9,340.9,203.2z"/>
	</g>
</g>
</svg>
