<?xml version="1.0" encoding="utf-8"?>
<!-- Generator: Adobe Illustrator 21.0.0, SVG Export Plug-In . SVG Version: 6.00 Build 0)  -->
<svg version="1.1" id="Calque_1" xmlns="http://www.w3.org/2000/svg" xmlns:xlink="http://www.w3.org/1999/xlink" x="0px" y="0px"
	 viewBox="0 0 800 800" style="enable-background:new 0 0 800 800;" xml:space="preserve">
<style type="text/css">
	.st0{fill:#FFFFFF;}
</style>
<g id="_x39_0zzDe_1_">
	<g>
		<path class="st0" d="M561,388.7c0,9.2,0,18.4,0,27.8c-9.4,0-18.5,0-28.1,0c0-9.2,0-18.4,0-28.1c-1.5-0.1-2.6-0.3-3.7-0.3
			c-18.7,0-37.4,0-56.1-0.1c-2.5,0-3.5,0.9-4.4,3.1c-12.1,29.1-24.3,58.2-36.5,87.3c-3.4,8.1-11.4,11.8-18.9,8.7
			c-7.7-3.2-10.9-11.2-7.5-19.4c10.4-24.9,20.9-49.9,31.3-74.8c0.6-1.4,1.1-2.8,1.8-4.7c-1.5-0.1-2.6-0.2-3.7-0.2
			c-9.9,0-19.7,0-29.6,0c-9.1,0-15.6-6.1-15.5-14.4c0.1-8.1,6.4-14,15.5-14c13.9-0.1,27.8-0.1,41.6,0c2.8,0,4.1-0.9,5.2-3.4
			c13.3-32,26.7-64,40-95.9c4.1-9.8,8-19.6,12.3-29.3c0.9-2,0.6-3.1-0.8-4.7c-14.8-18.3-18.6-38.5-9-60.3
			c6.6-15.1,18.2-25.3,33.9-30.5c3.1-1,3.8-2.4,3.8-5.4c-0.2-11.9-0.1-23.9-0.1-35.8c0-1.4,0-2.8,0-4.4c9.5,0,18.6,0,28.5,0
			c0,2.5,0,4.9,0,7.3c0,11.4,0,22.8-0.2,34.2c0,2.1,0.5,3.1,2.7,3.8c39,12.4,52.6,58.6,26.6,90.2c-2,2.5-2.4,4.3-1.1,7.4
			c15.5,36.7,30.9,73.4,46.2,110.2c2,4.8,4.2,9.5,6,14.3c0.7,1.9,1.7,2.4,3.7,2.4c13.9-0.1,27.8,0,41.6-0.1c6.2,0,11.5,1.6,14.8,7.4
			c5.2,9.3-1.4,20.9-12,21c-11.5,0.1-23,0-35.2,0c3.3,7.9,6.5,15.4,9.6,22.8c8,19.1,16.1,38.1,24,57.2c3,7.3-0.2,15.3-7.4,18.6
			c-7.1,3.3-15.2,0.4-18.5-7.2c-5.2-11.6-9.9-23.3-14.8-35c-7.5-17.9-15-35.8-22.6-53.6c-0.5-1.2-2.2-2.8-3.3-2.8
			c-19.7-0.2-39.4-0.1-59.2-0.1C562,388.2,561.8,388.3,561,388.7z M561.1,359.4c17.1,0,33.6,0,50.5,0
			c-16.3-38.9-32.5-77.4-48.7-116.1c-11,3.6-21.6,3.3-32.3,0c-16.2,38.8-32.4,77.4-48.6,116.1c17.1,0,33.8,0,50.8,0
			c0-9.5,0-18.7,0-27.9c9.6,0,18.9,0,28.2,0c0,4.8,0,9.4,0,13.9C561.1,350,561.1,354.5,561.1,359.4z M547.1,217.5
			c15.7,0,28.4-12.8,28.3-28.5c-0.1-15.8-12.9-28.4-28.9-28.4c-15.5,0-27.9,12.6-27.9,28.3C518.6,205.2,531,217.6,547.1,217.5z"/>
		<path class="st0" d="M305.1,715c-9.4,0-18.5,0-28.2,0c0-18.8,0-37.6,0-56.7c-3.1,0-5.8,0-8.5,0c-10.8,0-21.5-0.3-32.3,0.1
			c-21.8,0.7-39.8-7.7-55.2-22.6c-16-15.5-24.6-34.5-27.4-56.5c-2.6-20.7-5.9-41.3-8.8-61.9c-1.1-7.9-2.4-15.9-3.3-23.8
			c-0.3-2.6-1.3-4.1-3.7-5.2c-12.6-6.1-25.1-12.3-37.6-18.5c-21.2-10.6-28.1-33.8-16.3-54.2c18.1-31.1,36.2-62.2,54.2-93.4
			c1.6-2.8,2.6-6.2,3-9.4c4.5-34.3,11.6-67.8,25.9-99.6c16.4-36.5,40.6-66.4,74.9-87.5c23.1-14.3,48.3-23.4,74.9-28.9
			c29.6-6.2,59.6-7.9,89.7-6.7c24.8,1,49.2,4.9,72.9,12.2c8.6,2.6,13,9.8,10.8,17.8c-2.2,7.9-9.7,12-18.4,9.5
			c-18.2-5.3-36.7-9.3-55.6-10.2c-16.7-0.8-33.4-1.2-50.1-0.5c-23.1,1-45.8,4.8-67.9,11.8c-48.4,15.4-83.1,46.3-104.4,92.3
			c-11.1,24-17.8,49.3-22,75.3c-1.3,8-2.6,16.1-3.3,24.2c-0.6,7-4.7,12.2-8,17.9c-17.2,29.7-34.4,59.3-51.6,89
			c-4.4,7.5-3.3,10.9,4.4,14.9c14.7,7.5,29.4,15,44.4,22.1c6.9,3.3,10,8.2,11,15.5c3.6,26.5,7.6,53,11.4,79.6
			c0.9,6.3,1.6,12.6,2.7,18.8c4,21.6,15.5,37.5,35.7,46.7c8.1,3.7,16.7,2.6,25.2,2.7c15.7,0.1,31.3-0.1,47,0
			c8.6,0.1,14.7,6,14.7,14.3c0.1,23.1,0,46.2,0,69.3C305.3,713.7,305.2,714,305.1,715z"/>
		<path class="st0" d="M560.9,715c-9.5,0-18.5,0-27.8,0c-0.1-0.5-0.3-1-0.3-1.4c0-32.7-0.6-65.4,0.2-98.1
			c0.8-33.8,10.3-65.5,26-95.4c4.6-8.8,9.8-17.3,15.1-25.7c4.6-7.3,13.1-9,19.9-4.4c6.7,4.5,8.3,13.1,3.6,20.2
			c-14.6,22-25.4,45.6-31.5,71.4c-3.9,16.2-5.1,32.7-5,49.3c0.1,26.8,0.1,53.6,0.1,80.4C561.2,712.3,561,713.5,560.9,715z"/>
	</g>
</g>
</svg>
