<?xml version="1.0" encoding="utf-8"?>
<!-- Generator: Adobe Illustrator 21.0.0, SVG Export Plug-In . SVG Version: 6.00 Build 0)  -->
<svg version="1.1" id="Calque_1" xmlns="http://www.w3.org/2000/svg" xmlns:xlink="http://www.w3.org/1999/xlink" x="0px" y="0px"
	 viewBox="0 0 800 800" style="enable-background:new 0 0 800 800;" xml:space="preserve">
<style type="text/css">
	.st0{fill:#FFFFFF;}
</style>
<g id="JAIJ7p.tif">
	<g>
		<path class="st0" d="M410.7,270.7c-22.9,23.5-45.5,46.7-68,69.8c9,4.7,18.7,9.9,28.5,15c12.6,6.7,25.3,13.2,37.9,20
			c10,5.4,16.9,13.4,18.9,24.8c0.7,3.8,0.4,7.8,0.4,11.7c0,47.6,0,95.2,0,142.8c0,12.8-5.7,22.3-17.2,27.9
			c-18.7,9.1-40.9-4.1-42.2-24.9c-0.2-3.3-0.2-6.6-0.2-10c0-35.2-0.1-70.4,0.1-105.6c0-2.8-1-4-3.2-5.3
			c-35.8-19.8-71.7-39.7-107.4-59.7c-16-9-24.1-22.8-23.3-41.2c0.4-10.4,4.5-19.6,11.8-27c36.9-37.1,73.8-74.2,110.9-111.1
			c8.1-8,18.2-11,29.5-10.8c16.8,0.3,28.7,8.6,37.4,22.3c17.9,28.1,35.9,56.2,53.7,84.3c1.2,1.9,2.4,2.7,4.8,2.7
			c27.3-0.1,54.6-0.2,82-0.1c3.4,0,6.9,0.3,10.1,1.2c10,2.9,14.8,10.8,14.6,19.5c-0.3,9.9-7.3,17.5-17,19.1c-2.5,0.4-5,0.6-7.5,0.6
			c-32.4,0-64.7-0.1-97.1,0.1c-9.9,0.1-17.3-4-22.6-12.1c-9.2-14-18.1-28.1-27.1-42.2C415.9,278.9,413.6,275.2,410.7,270.7z"/>
		<path class="st0" d="M195.9,684C120.1,684,58.2,622.1,58.2,546c0-76,61.9-137.9,137.9-137.8c76.1,0.1,138,62,137.9,137.9
			C333.8,622.2,272,683.9,195.9,684z M195.8,658.5c61.8,0.2,112.4-50.4,112.5-112.5c0-61.9-50.2-112.2-112.2-112.4
			c-61.7-0.2-112.2,50.1-112.5,112.1C83.3,607.6,133.8,658.3,195.8,658.5z"/>
		<path class="st0" d="M601.6,409.6c75.8-0.2,137.5,61.4,137.8,137.5c0.3,76.1-61.5,138.2-137.6,138.2
			c-76.1,0.1-138.3-62.1-138.1-137.9C463.9,471.2,525.4,409.7,601.6,409.6z M601.7,434.9c-62,0-112.5,50.5-112.4,112.5
			c0.1,62,50.2,112.2,112.2,112.4c61.8,0.1,112.3-50.3,112.4-112.2C714,485.6,663.6,435,601.7,434.9z"/>
		<path class="st0" d="M514.7,159.2c0.1,28.4-23.2,51.7-51.6,51.7c-28.7,0.1-52-22.9-52.1-51.6c-0.2-28.4,23.3-51.9,51.8-51.9
			C491.3,107.4,514.6,130.6,514.7,159.2z"/>
	</g>
</g>
</svg>
